<?xml version="1.0" encoding="utf-8"?>
<!-- Generator: Adobe Illustrator 22.1.0, SVG Export Plug-In . SVG Version: 6.00 Build 0)  -->
<svg version="1.1" id="Layer_1" xmlns="http://www.w3.org/2000/svg" xmlns:xlink="http://www.w3.org/1999/xlink" x="0px" y="0px"
	 viewBox="0 0 400 400" style="enable-background:new 0 0 400 400;" xml:space="preserve">
<style type="text/css">
	.st0{fill:#FFFFFF;}
</style>
<path class="st0" d="M200,0C89.5,0,0,89.5,0,200s89.5,200,200,200s200-89.5,200-200S310.5,0,200,0z M327.3,327.3
	c-34,34-79.2,52.7-127.3,52.7s-93.3-18.7-127.3-52.7S20,248.1,20,200s18.7-93.3,52.7-127.3S151.9,20,200,20s93.3,18.7,127.3,52.7
	S380,151.9,380,200S361.3,293.3,327.3,327.3z"/>
<path class="st0" d="M352.4,150.1L348,136h-14.7h-45.7l-24.3-24.3c-7-7-16.7-11.1-26.6-11.1h-5.5h-48.3h-20.2
	c-9.5,0-18.8,3.8-25.5,10.6l-24.7,24.7H66.6H51.9L47.5,150c-5,16.1-7.5,32.9-7.5,50c0,20.1,3.5,39.9,10.3,58.6l5.6,15.4l16.2-2.5
	l41.2-6.4l18,18l0.1,0.1l0.1,0.1c10.5,10.4,24.4,16.1,39,16.1h71c11.3,0,21.5-6.2,26.8-15.9l13.8-13.8l4.4-4.4l41.2,6.4l16.1,2.5
	l5.7-15.3c7-18.8,10.4-38.6,10.3-58.7C359.9,183,357.4,166.1,352.4,150.1z M241.5,279.4h-71c-9.4,0-18.3-3.7-25-10.3l-18.9-18.9
	c-3.3-3.3-7.8-5.1-12.4-5.1c-0.8,0-1.5,0-2.3,0.1l-42.8,6.6C63.2,235.6,60,218.2,60,200c0-15.4,2.3-30.2,6.6-44.1h46.7
	c4.7,0,9.2-1.9,12.5-5.2l25.4-25.4c3-3,7.1-4.7,11.4-4.7h20.2l-35.5,35.5c-5.8,5.8-9,13.6-9,21.8c0,11.5,6.2,22,17.1,27.7
	c1.1,0.6,2.3,1.1,3.5,1.5c3.4,1.1,6.9,1.7,10.3,1.7c7.4,0,14.4-2.6,19.9-7.3l59.9,59.8C255.6,268,250.9,279.4,241.5,279.4z
	 M330.8,251.8l-42.8-6.6c-0.7-0.1-1.5-0.1-2.2-0.1c-4.6,0-9.1,1.9-12.5,5.1l-5.3,5.3l-66.4-66.4l14-14c3.4-3.4,3.4-9,0-12.4
	c-1.8-1.8-4-2.6-6.3-2.6s-4.5,0.9-6.3,2.6l-24.6,24.6c-2.6,2.6-6,3.9-9.4,3.9s-6.8-1.3-9.4-3.9c-5.2-5.2-5.2-13.5,0-18.7l42.8-42.8
	c3.3-3.3,7.8-5.2,12.5-5.2h21.7c4.7,0,9.2,1.9,12.5,5.2l25,25c3.3,3.3,7.8,5.2,12.5,5.2h46.7c4.3,13.9,6.6,28.8,6.6,44.1
	C340,218.2,336.8,235.6,330.8,251.8z"/>
</svg>
