<?xml version="1.0" encoding="utf-8"?>
<!-- Generator: Adobe Illustrator 22.1.0, SVG Export Plug-In . SVG Version: 6.00 Build 0)  -->
<svg version="1.1" id="Layer_1" xmlns="http://www.w3.org/2000/svg" xmlns:xlink="http://www.w3.org/1999/xlink" x="0px" y="0px"
	 viewBox="0 0 976.3 400" style="enable-background:new 0 0 976.3 400;" xml:space="preserve">
<style type="text/css">
	.st0{fill:#FFFFFF;}
</style>
<path class="st0" d="M200,0C89.5,0,0,89.5,0,200s89.5,200,200,200s200-89.5,200-200S310.5,0,200,0z M241.5,279.4h-71
	c-9.4,0-18.3-3.7-25-10.3l-18.9-18.9c-3.9-3.9-9.3-5.7-14.7-5l-52.8,6.6C53.2,235.6,50,218.2,50,200c0-15.4,2.3-30.2,6.6-44.1h56.7
	c4.7,0,9.2-1.9,12.5-5.2l25.4-25.4c3-3,7.1-4.7,11.4-4.7h20.2l-35.5,35.5c-5.8,5.8-9,13.6-9,21.8c0,11.5,6.2,22,17.1,27.7
	c1.1,0.6,2.3,1.1,3.5,1.5c11,3.6,22.1,1.2,30.2-5.6l59.9,59.8C255.6,268,250.9,279.4,241.5,279.4z M340.8,251.8l-52.8-6.6
	c-5.4-0.7-10.8,1.2-14.7,5l-5.3,5.3l-66.4-66.4l14-14c3.4-3.4,3.4-9,0-12.4c-3.5-3.5-9.1-3.5-12.6,0l-24.6,24.6
	c-2.6,2.6-6,3.9-9.4,3.9c-3.4,0-6.8-1.3-9.4-3.9c-5.2-5.2-5.2-13.5,0-18.7l42.8-42.8c3.3-3.3,7.8-5.2,12.5-5.2h21.7
	c4.7,0,9.2,1.9,12.5,5.2l25,25c3.3,3.3,7.8,5.2,12.5,5.2h56.7c4.3,13.9,6.6,28.8,6.6,44.1C350,218.2,346.8,235.6,340.8,251.8z"/>
<g>
	<path class="st0" d="M469.6,245.1c-7.8,0-13.9-2.8-18.5-8.5c-4.6-5.6-6.8-13.5-6.8-23.7c0-5,0.7-9.5,2.2-13.5
		c1.5-4,3.4-7.4,5.8-10.1c2.4-2.8,5.2-4.9,8.3-6.4c3.1-1.5,6.4-2.3,9.7-2.3c3.5,0,6.5,0.6,8.9,1.8c2.4,1.2,4.8,2.9,7.3,4.9l-0.5-9.9
		v-22.3h14.4v88.4h-11.9l-1-6.6h-0.5c-2.3,2.3-4.9,4.2-7.9,5.8C476.2,244.3,473,245.1,469.6,245.1z M473.2,233.2
		c4.6,0,8.9-2.3,12.9-6.9v-28.7c-2.2-1.9-4.3-3.3-6.3-4c-2-0.8-4.1-1.1-6.2-1.1c-4,0-7.4,1.8-10.1,5.3s-4.1,8.5-4.1,15
		c0,6.7,1.2,11.8,3.6,15.2C465.2,231.5,468.6,233.2,473.2,233.2z"/>
	<path class="st0" d="M522.8,171.3c-2.6,0-4.7-0.8-6.4-2.3c-1.7-1.5-2.5-3.5-2.5-5.9c0-2.4,0.8-4.4,2.5-5.9c1.7-1.5,3.8-2.3,6.4-2.3
		c2.6,0,4.7,0.8,6.4,2.3c1.7,1.5,2.5,3.5,2.5,5.9c0,2.4-0.8,4.4-2.5,5.9C527.5,170.6,525.4,171.3,522.8,171.3z M515.6,243.6v-61.5
		H530v61.5H515.6z"/>
	<path class="st0" d="M562.5,245.1c-4.3,0-8.5-0.8-12.6-2.4s-7.7-3.7-10.7-6.1l6.8-9.3c2.8,2.2,5.5,3.9,8.2,5.1
		c2.7,1.2,5.7,1.8,8.8,1.8c3.3,0,5.8-0.7,7.4-2.1c1.6-1.4,2.4-3.2,2.4-5.3c0-1.3-0.4-2.4-1.1-3.3c-0.8-1-1.8-1.8-3-2.6
		c-1.3-0.8-2.7-1.4-4.3-2.1c-1.6-0.6-3.2-1.3-4.8-1.9c-2-0.8-4.1-1.6-6.1-2.6c-2.1-1-3.9-2.2-5.6-3.6c-1.6-1.4-3-3.1-4-4.9
		c-1-1.9-1.6-4.1-1.6-6.7c0-5.4,2-9.9,6-13.3c4-3.4,9.5-5.1,16.4-5.1c4.3,0,8.1,0.8,11.5,2.3c3.4,1.5,6.4,3.2,8.9,5.1l-6.6,8.8
		c-2.2-1.6-4.4-2.9-6.6-3.8c-2.2-1-4.5-1.4-7-1.4c-3.1,0-5.4,0.6-6.8,1.9c-1.5,1.3-2.2,2.9-2.2,4.8c0,1.3,0.4,2.3,1.1,3.2
		c0.7,0.9,1.6,1.7,2.8,2.3c1.2,0.7,2.5,1.3,4.1,1.9c1.5,0.6,3.2,1.2,4.8,1.8c2.1,0.8,4.2,1.6,6.3,2.6c2.1,1,4,2.2,5.7,3.6
		c1.7,1.4,3.1,3.2,4.1,5.2c1,2,1.6,4.5,1.6,7.3c0,2.7-0.5,5.2-1.6,7.5c-1,2.3-2.6,4.3-4.6,6c-2,1.7-4.5,3.1-7.5,4.1
		C569.8,244.6,566.3,245.1,562.5,245.1z"/>
	<path class="st0" d="M623.1,245.1c-4.2,0-8.1-0.7-11.7-2.1c-3.6-1.4-6.8-3.5-9.5-6.3c-2.7-2.8-4.8-6.1-6.3-10.1
		c-1.5-4-2.3-8.6-2.3-13.7c0-5.1,0.8-9.6,2.5-13.7c1.7-4,3.9-7.4,6.8-10.1c2.8-2.8,6.1-4.9,9.8-6.3c3.7-1.5,7.6-2.2,11.7-2.2
		c4,0,7.5,0.7,10.3,2c2.9,1.3,5.4,3,7.7,4.9l-7,9.4c-1.7-1.4-3.3-2.5-4.9-3.3c-1.6-0.8-3.4-1.2-5.3-1.2c-5,0-9.1,1.9-12.1,5.6
		c-3.1,3.7-4.6,8.7-4.6,15c0,6.2,1.5,11.1,4.6,14.8c3,3.7,7,5.6,11.8,5.6c2.4,0,4.7-0.5,6.8-1.6c2.1-1,4.1-2.3,5.8-3.7l5.9,9.5
		c-2.9,2.5-6.1,4.4-9.6,5.6C630.1,244.5,626.6,245.1,623.1,245.1z"/>
	<path class="st0" d="M665.6,245.1c-5.2,0-8.8-1.5-10.9-4.6c-2.1-3.1-3.1-7.3-3.1-12.6v-72.6H666v73.4c0,1.8,0.3,3,1,3.7
		c0.7,0.7,1.4,1.1,2.1,1.1c0.3,0,0.6,0,0.9,0c0.3,0,0.7-0.1,1.3-0.3l1.9,10.8C671.4,244.7,668.8,245.1,665.6,245.1z"/>
	<path class="st0" d="M707.5,245.1c-3.8,0-7.5-0.7-11-2.1s-6.6-3.5-9.3-6.3c-2.7-2.8-4.9-6.1-6.4-10.1c-1.6-4-2.4-8.6-2.4-13.7
		c0-5.1,0.8-9.6,2.4-13.7c1.6-4,3.7-7.4,6.4-10.1c2.7-2.8,5.8-4.9,9.3-6.3c3.5-1.5,7.2-2.2,11-2.2c3.8,0,7.5,0.7,11.1,2.2
		c3.5,1.5,6.7,3.6,9.3,6.3c2.7,2.8,4.8,6.1,6.5,10.1s2.4,8.6,2.4,13.7c0,5.1-0.8,9.6-2.4,13.7c-1.6,4-3.8,7.4-6.5,10.1
		c-2.7,2.8-5.8,4.8-9.3,6.3C715,244.4,711.3,245.1,707.5,245.1z M707.5,233.3c4.5,0,8.1-1.9,10.6-5.6c2.6-3.7,3.9-8.7,3.9-14.8
		c0-6.3-1.3-11.2-3.9-15c-2.6-3.7-6.1-5.6-10.6-5.6s-8,1.9-10.6,5.6c-2.5,3.7-3.8,8.7-3.8,15c0,6.2,1.3,11.1,3.8,14.8
		C699.5,231.5,703,233.3,707.5,233.3z"/>
	<path class="st0" d="M765.2,245.1c-4.3,0-8.5-0.8-12.6-2.4s-7.7-3.7-10.7-6.1l6.8-9.3c2.8,2.2,5.5,3.9,8.2,5.1
		c2.7,1.2,5.7,1.8,8.8,1.8c3.3,0,5.8-0.7,7.4-2.1c1.6-1.4,2.4-3.2,2.4-5.3c0-1.3-0.4-2.4-1.1-3.3c-0.8-1-1.8-1.8-3-2.6
		c-1.3-0.8-2.7-1.4-4.3-2.1c-1.6-0.6-3.2-1.3-4.8-1.9c-2-0.8-4.1-1.6-6.1-2.6c-2.1-1-3.9-2.2-5.6-3.6c-1.6-1.4-3-3.1-4-4.9
		c-1-1.9-1.6-4.1-1.6-6.7c0-5.4,2-9.9,6-13.3c4-3.4,9.5-5.1,16.4-5.1c4.3,0,8.1,0.8,11.5,2.3c3.4,1.5,6.4,3.2,8.9,5.1l-6.6,8.8
		c-2.2-1.6-4.4-2.9-6.6-3.8c-2.2-1-4.5-1.4-7-1.4c-3.1,0-5.4,0.6-6.8,1.9c-1.5,1.3-2.2,2.9-2.2,4.8c0,1.3,0.4,2.3,1.1,3.2
		c0.7,0.9,1.6,1.7,2.8,2.3c1.2,0.7,2.5,1.3,4.1,1.9c1.5,0.6,3.2,1.2,4.8,1.8c2.1,0.8,4.2,1.6,6.3,2.6c2.1,1,4,2.2,5.7,3.6
		c1.7,1.4,3.1,3.2,4.1,5.2c1,2,1.6,4.5,1.6,7.3c0,2.7-0.5,5.2-1.6,7.5c-1,2.3-2.6,4.3-4.6,6c-2,1.7-4.5,3.1-7.5,4.1
		S769,245.1,765.2,245.1z"/>
	<path class="st0" d="M826.4,245.1c-4.3,0-8.2-0.7-11.9-2.2c-3.7-1.5-6.9-3.6-9.6-6.3c-2.8-2.8-4.9-6.1-6.4-10.1
		c-1.5-4-2.3-8.5-2.3-13.6c0-5,0.8-9.5,2.4-13.5c1.6-4,3.7-7.4,6.3-10.1s5.7-4.9,9.1-6.4c3.4-1.5,6.9-2.3,10.5-2.3
		c4.2,0,7.8,0.7,11,2.1c3.2,1.4,5.8,3.4,8,6c2.1,2.6,3.7,5.7,4.8,9.3c1.1,3.6,1.6,7.5,1.6,11.8c0,1.4-0.1,2.8-0.2,4
		c-0.1,1.3-0.3,2.3-0.4,3h-39.1c0.7,5.5,2.6,9.8,5.8,12.7c3.2,3,7.3,4.4,12.3,4.4c2.7,0,5.2-0.4,7.5-1.2c2.3-0.8,4.6-1.9,6.8-3.3
		l4.9,9c-2.9,1.9-6.2,3.5-9.8,4.8C834.1,244.5,830.3,245.1,826.4,245.1z M810,207h27.3c0-4.8-1-8.5-3.1-11.2c-2-2.7-5.2-4.1-9.5-4.1
		c-3.7,0-6.9,1.3-9.6,3.9C812.4,198.2,810.7,202,810,207z"/>
	<path class="st0" d="M868.7,245.1c-2.7,0-4.9-0.9-6.7-2.8c-1.8-1.8-2.7-4.2-2.7-7c0-2.8,0.9-5.2,2.7-7c1.8-1.8,4-2.8,6.7-2.8
		c2.7,0,4.9,0.9,6.6,2.8c1.8,1.8,2.6,4.2,2.6,7c0,2.8-0.9,5.2-2.6,7C873.6,244.2,871.4,245.1,868.7,245.1z"/>
	<path class="st0" d="M899.3,171.3c-2.6,0-4.7-0.8-6.4-2.3c-1.7-1.5-2.5-3.5-2.5-5.9c0-2.4,0.8-4.4,2.5-5.9c1.7-1.5,3.8-2.3,6.4-2.3
		c2.6,0,4.7,0.8,6.4,2.3c1.7,1.5,2.5,3.5,2.5,5.9c0,2.4-0.8,4.4-2.5,5.9C904,170.6,901.9,171.3,899.3,171.3z M892,243.6v-61.5h14.4
		v61.5H892z"/>
	<path class="st0" d="M947,245.1c-3.8,0-7.5-0.7-11-2.1s-6.6-3.5-9.3-6.3c-2.7-2.8-4.9-6.1-6.4-10.1c-1.6-4-2.4-8.6-2.4-13.7
		c0-5.1,0.8-9.6,2.4-13.7c1.6-4,3.7-7.4,6.4-10.1c2.7-2.8,5.8-4.9,9.3-6.3c3.5-1.5,7.2-2.2,11-2.2c3.8,0,7.5,0.7,11.1,2.2
		c3.5,1.5,6.7,3.6,9.3,6.3c2.7,2.8,4.8,6.1,6.5,10.1s2.4,8.6,2.4,13.7c0,5.1-0.8,9.6-2.4,13.7c-1.6,4-3.8,7.4-6.5,10.1
		c-2.7,2.8-5.8,4.8-9.3,6.3C954.6,244.4,950.9,245.1,947,245.1z M947,233.3c4.5,0,8.1-1.9,10.6-5.6c2.6-3.7,3.9-8.7,3.9-14.8
		c0-6.3-1.3-11.2-3.9-15c-2.6-3.7-6.1-5.6-10.6-5.6s-8,1.9-10.6,5.6c-2.5,3.7-3.8,8.7-3.8,15c0,6.2,1.3,11.1,3.8,14.8
		C939,231.5,942.5,233.3,947,233.3z"/>
</g>
</svg>
