<svg xmlns="http://www.w3.org/2000/svg" viewBox="0 0 400 400"><path fill="#673AB6" d="M200 0C89.5 0 0 89.5 0 200s89.5 200 200 200 200-89.5 200-200S310.5 0 200 0z"/><path fill="#FFF" d="M241.5 279.4h-71c-9.4 0-18.3-3.7-25-10.3l-18.9-18.9c-3.9-3.9-9.3-5.7-14.7-5l-52.8 6.6C53.2 235.6 50 218.2 50 200c0-15.4 2.3-30.2 6.6-44.1h56.7c4.7 0 9.2-1.9 12.5-5.2l25.4-25.4c3-3 7.1-4.7 11.4-4.7h20.2l-35.5 35.5c-5.8 5.8-9 13.6-9 21.8 0 11.5 6.2 22 17.1 27.7 1.1.6 2.3 1.1 3.5 1.5 11 3.6 22.1 1.2 30.2-5.6l59.9 59.8c6.6 6.7 1.9 18.1-7.5 18.1z"/><path fill="#FFF" d="M340.8 251.8l-52.8-6.6c-5.4-.7-10.8 1.2-14.7 5l-5.3 5.3-66.4-66.4 14-14c3.4-3.4 3.4-9 0-12.4-3.5-3.5-9.1-3.5-12.6 0l-24.6 24.6c-2.6 2.6-6 3.9-9.4 3.9s-6.8-1.3-9.4-3.9c-5.2-5.2-5.2-13.5 0-18.7l42.8-42.8c3.3-3.3 7.8-5.2 12.5-5.2h21.7c4.7 0 9.2 1.9 12.5 5.2l25 25c3.3 3.3 7.8 5.2 12.5 5.2h56.7c4.3 13.9 6.6 28.8 6.6 44.1.1 18.1-3.1 35.5-9.1 51.7z"/></svg>