<svg xmlns="http://www.w3.org/2000/svg" viewBox="0 0 976.3 400"><path d="M200 0C89.5 0 0 89.5 0 200s89.5 200 200 200 200-89.5 200-200S310.5 0 200 0zm41.5 279.4h-71c-9.4 0-18.3-3.7-25-10.3l-18.9-18.9c-3.9-3.9-9.3-5.7-14.7-5l-52.8 6.6C53.2 235.6 50 218.2 50 200c0-15.4 2.3-30.2 6.6-44.1h56.7c4.7 0 9.2-1.9 12.5-5.2l25.4-25.4c3-3 7.1-4.7 11.4-4.7h20.2l-35.5 35.5c-5.8 5.8-9 13.6-9 21.8 0 11.5 6.2 22 17.1 27.7 1.1.6 2.3 1.1 3.5 1.5 11 3.6 22.1 1.2 30.2-5.6l59.9 59.8c6.6 6.7 1.9 18.1-7.5 18.1zm99.3-27.6l-52.8-6.6c-5.4-.7-10.8 1.2-14.7 5l-5.3 5.3-66.4-66.4 14-14c3.4-3.4 3.4-9 0-12.4-3.5-3.5-9.1-3.5-12.6 0l-24.6 24.6c-2.6 2.6-6 3.9-9.4 3.9-3.4 0-6.8-1.3-9.4-3.9-5.2-5.2-5.2-13.5 0-18.7l42.8-42.8c3.3-3.3 7.8-5.2 12.5-5.2h21.7c4.7 0 9.2 1.9 12.5 5.2l25 25c3.3 3.3 7.8 5.2 12.5 5.2h56.7c4.3 13.9 6.6 28.8 6.6 44.1.1 18.1-3.1 35.5-9.1 51.7zM469.6 245.1c-7.8 0-13.9-2.8-18.5-8.5-4.6-5.6-6.8-13.5-6.8-23.7 0-5 .7-9.5 2.2-13.5 1.5-4 3.4-7.4 5.8-10.1 2.4-2.8 5.2-4.9 8.3-6.4 3.1-1.5 6.4-2.3 9.7-2.3 3.5 0 6.5.6 8.9 1.8 2.4 1.2 4.8 2.9 7.3 4.9l-.5-9.9v-22.3h14.4v88.4h-11.9l-1-6.6h-.5c-2.3 2.3-4.9 4.2-7.9 5.8-2.9 1.6-6.1 2.4-9.5 2.4zm3.6-11.9c4.6 0 8.9-2.3 12.9-6.9v-28.7c-2.2-1.9-4.3-3.3-6.3-4-2-.8-4.1-1.1-6.2-1.1-4 0-7.4 1.8-10.1 5.3s-4.1 8.5-4.1 15c0 6.7 1.2 11.8 3.6 15.2 2.2 3.5 5.6 5.2 10.2 5.2zM522.8 171.3c-2.6 0-4.7-.8-6.4-2.3-1.7-1.5-2.5-3.5-2.5-5.9 0-2.4.8-4.4 2.5-5.9s3.8-2.3 6.4-2.3c2.6 0 4.7.8 6.4 2.3 1.7 1.5 2.5 3.5 2.5 5.9 0 2.4-.8 4.4-2.5 5.9-1.7 1.6-3.8 2.3-6.4 2.3zm-7.2 72.3v-61.5H530v61.5h-14.4zM562.5 245.1c-4.3 0-8.5-.8-12.6-2.4s-7.7-3.7-10.7-6.1l6.8-9.3c2.8 2.2 5.5 3.9 8.2 5.1 2.7 1.2 5.7 1.8 8.8 1.8 3.3 0 5.8-.7 7.4-2.1 1.6-1.4 2.4-3.2 2.4-5.3 0-1.3-.4-2.4-1.1-3.3-.8-1-1.8-1.8-3-2.6-1.3-.8-2.7-1.4-4.3-2.1-1.6-.6-3.2-1.3-4.8-1.9-2-.8-4.1-1.6-6.1-2.6-2.1-1-3.9-2.2-5.6-3.6-1.6-1.4-3-3.1-4-4.9-1-1.9-1.6-4.1-1.6-6.7 0-5.4 2-9.9 6-13.3 4-3.4 9.5-5.1 16.4-5.1 4.3 0 8.1.8 11.5 2.3 3.4 1.5 6.4 3.2 8.9 5.1l-6.6 8.8c-2.2-1.6-4.4-2.9-6.6-3.8-2.2-1-4.5-1.4-7-1.4-3.1 0-5.4.6-6.8 1.9-1.5 1.3-2.2 2.9-2.2 4.8 0 1.3.4 2.3 1.1 3.2.7.9 1.6 1.7 2.8 2.3 1.2.7 2.5 1.3 4.1 1.9 1.5.6 3.2 1.2 4.8 1.8 2.1.8 4.2 1.6 6.3 2.6 2.1 1 4 2.2 5.7 3.6 1.7 1.4 3.1 3.2 4.1 5.2 1 2 1.6 4.5 1.6 7.3 0 2.7-.5 5.2-1.6 7.5-1 2.3-2.6 4.3-4.6 6-2 1.7-4.5 3.1-7.5 4.1-2.9.7-6.4 1.2-10.2 1.2zM623.1 245.1c-4.2 0-8.1-.7-11.7-2.1-3.6-1.4-6.8-3.5-9.5-6.3s-4.8-6.1-6.3-10.1-2.3-8.6-2.3-13.7.8-9.6 2.5-13.7c1.7-4 3.9-7.4 6.8-10.1 2.8-2.8 6.1-4.9 9.8-6.3 3.7-1.5 7.6-2.2 11.7-2.2 4 0 7.5.7 10.3 2 2.9 1.3 5.4 3 7.7 4.9l-7 9.4c-1.7-1.4-3.3-2.5-4.9-3.3-1.6-.8-3.4-1.2-5.3-1.2-5 0-9.1 1.9-12.1 5.6-3.1 3.7-4.6 8.7-4.6 15 0 6.2 1.5 11.1 4.6 14.8 3 3.7 7 5.6 11.8 5.6 2.4 0 4.7-.5 6.8-1.6 2.1-1 4.1-2.3 5.8-3.7l5.9 9.5c-2.9 2.5-6.1 4.4-9.6 5.6-3.4 1.3-6.9 1.9-10.4 1.9zM665.6 245.1c-5.2 0-8.8-1.5-10.9-4.6-2.1-3.1-3.1-7.3-3.1-12.6v-72.6H666v73.4c0 1.8.3 3 1 3.7.7.7 1.4 1.1 2.1 1.1h.9c.3 0 .7-.1 1.3-.3l1.9 10.8c-1.8.7-4.4 1.1-7.6 1.1zM707.5 245.1c-3.8 0-7.5-.7-11-2.1s-6.6-3.5-9.3-6.3c-2.7-2.8-4.9-6.1-6.4-10.1-1.6-4-2.4-8.6-2.4-13.7s.8-9.6 2.4-13.7c1.6-4 3.7-7.4 6.4-10.1 2.7-2.8 5.8-4.9 9.3-6.3 3.5-1.5 7.2-2.2 11-2.2s7.5.7 11.1 2.2c3.5 1.5 6.7 3.6 9.3 6.3 2.7 2.8 4.8 6.1 6.5 10.1s2.4 8.6 2.4 13.7-.8 9.6-2.4 13.7c-1.6 4-3.8 7.4-6.5 10.1-2.7 2.8-5.8 4.8-9.3 6.3-3.6 1.4-7.3 2.1-11.1 2.1zm0-11.8c4.5 0 8.1-1.9 10.6-5.6 2.6-3.7 3.9-8.7 3.9-14.8 0-6.3-1.3-11.2-3.9-15-2.6-3.7-6.1-5.6-10.6-5.6s-8 1.9-10.6 5.6c-2.5 3.7-3.8 8.7-3.8 15 0 6.2 1.3 11.1 3.8 14.8 2.6 3.8 6.1 5.6 10.6 5.6zM765.2 245.1c-4.3 0-8.5-.8-12.6-2.4s-7.7-3.7-10.7-6.1l6.8-9.3c2.8 2.2 5.5 3.9 8.2 5.1 2.7 1.2 5.7 1.8 8.8 1.8 3.3 0 5.8-.7 7.4-2.1 1.6-1.4 2.4-3.2 2.4-5.3 0-1.3-.4-2.4-1.1-3.3-.8-1-1.8-1.8-3-2.6-1.3-.8-2.7-1.4-4.3-2.1-1.6-.6-3.2-1.3-4.8-1.9-2-.8-4.1-1.6-6.1-2.6-2.1-1-3.9-2.2-5.6-3.6-1.6-1.4-3-3.1-4-4.9-1-1.9-1.6-4.1-1.6-6.7 0-5.4 2-9.9 6-13.3 4-3.4 9.5-5.1 16.4-5.1 4.3 0 8.1.8 11.5 2.3 3.4 1.5 6.4 3.2 8.9 5.1l-6.6 8.8c-2.2-1.6-4.4-2.9-6.6-3.8-2.2-1-4.5-1.4-7-1.4-3.1 0-5.4.6-6.8 1.9-1.5 1.3-2.2 2.9-2.2 4.8 0 1.3.4 2.3 1.1 3.2.7.9 1.6 1.7 2.8 2.3 1.2.7 2.5 1.3 4.1 1.9 1.5.6 3.2 1.2 4.8 1.8 2.1.8 4.2 1.6 6.3 2.6 2.1 1 4 2.2 5.7 3.6 1.7 1.4 3.1 3.2 4.1 5.2 1 2 1.6 4.5 1.6 7.3 0 2.7-.5 5.2-1.6 7.5-1 2.3-2.6 4.3-4.6 6-2 1.7-4.5 3.1-7.5 4.1s-6.4 1.2-10.2 1.2zM826.4 245.1c-4.3 0-8.2-.7-11.9-2.2-3.7-1.5-6.9-3.6-9.6-6.3-2.8-2.8-4.9-6.1-6.4-10.1s-2.3-8.5-2.3-13.6c0-5 .8-9.5 2.4-13.5 1.6-4 3.7-7.4 6.3-10.1s5.7-4.9 9.1-6.4c3.4-1.5 6.9-2.3 10.5-2.3 4.2 0 7.8.7 11 2.1 3.2 1.4 5.8 3.4 8 6 2.1 2.6 3.7 5.7 4.8 9.3 1.1 3.6 1.6 7.5 1.6 11.8 0 1.4-.1 2.8-.2 4-.1 1.3-.3 2.3-.4 3h-39.1c.7 5.5 2.6 9.8 5.8 12.7 3.2 3 7.3 4.4 12.3 4.4 2.7 0 5.2-.4 7.5-1.2 2.3-.8 4.6-1.9 6.8-3.3l4.9 9c-2.9 1.9-6.2 3.5-9.8 4.8-3.6 1.3-7.4 1.9-11.3 1.9zM810 207h27.3c0-4.8-1-8.5-3.1-11.2-2-2.7-5.2-4.1-9.5-4.1-3.7 0-6.9 1.3-9.6 3.9-2.7 2.6-4.4 6.4-5.1 11.4zM868.7 245.1c-2.7 0-4.9-.9-6.7-2.8-1.8-1.8-2.7-4.2-2.7-7s.9-5.2 2.7-7c1.8-1.8 4-2.8 6.7-2.8s4.9.9 6.6 2.8c1.8 1.8 2.6 4.2 2.6 7s-.9 5.2-2.6 7c-1.7 1.9-3.9 2.8-6.6 2.8zM899.3 171.3c-2.6 0-4.7-.8-6.4-2.3-1.7-1.5-2.5-3.5-2.5-5.9 0-2.4.8-4.4 2.5-5.9s3.8-2.3 6.4-2.3c2.6 0 4.7.8 6.4 2.3 1.7 1.5 2.5 3.5 2.5 5.9 0 2.4-.8 4.4-2.5 5.9-1.7 1.6-3.8 2.3-6.4 2.3zm-7.3 72.3v-61.5h14.4v61.5H892zM947 245.1c-3.8 0-7.5-.7-11-2.1s-6.6-3.5-9.3-6.3c-2.7-2.8-4.9-6.1-6.4-10.1-1.6-4-2.4-8.6-2.4-13.7s.8-9.6 2.4-13.7c1.6-4 3.7-7.4 6.4-10.1 2.7-2.8 5.8-4.9 9.3-6.3 3.5-1.5 7.2-2.2 11-2.2s7.5.7 11.1 2.2c3.5 1.5 6.7 3.6 9.3 6.3 2.7 2.8 4.8 6.1 6.5 10.1s2.4 8.6 2.4 13.7-.8 9.6-2.4 13.7c-1.6 4-3.8 7.4-6.5 10.1-2.7 2.8-5.8 4.8-9.3 6.3-3.5 1.4-7.2 2.1-11.1 2.1zm0-11.8c4.5 0 8.1-1.9 10.6-5.6 2.6-3.7 3.9-8.7 3.9-14.8 0-6.3-1.3-11.2-3.9-15-2.6-3.7-6.1-5.6-10.6-5.6s-8 1.9-10.6 5.6c-2.5 3.7-3.8 8.7-3.8 15 0 6.2 1.3 11.1 3.8 14.8 2.6 3.8 6.1 5.6 10.6 5.6z"/></svg>