<svg xmlns="http://www.w3.org/2000/svg" viewBox="0 0 400 400"><path d="M200 0C89.5 0 0 89.5 0 200s89.5 200 200 200 200-89.5 200-200S310.5 0 200 0zm127.3 327.3c-34 34-79.2 52.7-127.3 52.7s-93.3-18.7-127.3-52.7S20 248.1 20 200s18.7-93.3 52.7-127.3S151.9 20 200 20s93.3 18.7 127.3 52.7S380 151.9 380 200s-18.7 93.3-52.7 127.3z"/><path d="M352.4 150.1L348 136H287.6l-24.3-24.3c-7-7-16.7-11.1-26.6-11.1h-74c-9.5 0-18.8 3.8-25.5 10.6l-24.7 24.7H51.9L47.5 150c-5 16.1-7.5 32.9-7.5 50 0 20.1 3.5 39.9 10.3 58.6l5.6 15.4 16.2-2.5 41.2-6.4 18 18 .1.1.1.1c10.5 10.4 24.4 16.1 39 16.1h71c11.3 0 21.5-6.2 26.8-15.9l13.8-13.8 4.4-4.4 41.2 6.4 16.1 2.5 5.7-15.3c7-18.8 10.4-38.6 10.3-58.7.1-17.2-2.4-34.1-7.4-50.1zM241.5 279.4h-71c-9.4 0-18.3-3.7-25-10.3l-18.9-18.9c-3.3-3.3-7.8-5.1-12.4-5.1-.8 0-1.5 0-2.3.1l-42.8 6.6C63.2 235.6 60 218.2 60 200c0-15.4 2.3-30.2 6.6-44.1h46.7c4.7 0 9.2-1.9 12.5-5.2l25.4-25.4c3-3 7.1-4.7 11.4-4.7h20.2l-35.5 35.5c-5.8 5.8-9 13.6-9 21.8 0 11.5 6.2 22 17.1 27.7 1.1.6 2.3 1.1 3.5 1.5 3.4 1.1 6.9 1.7 10.3 1.7 7.4 0 14.4-2.6 19.9-7.3l59.9 59.8c6.6 6.7 1.9 18.1-7.5 18.1zm89.3-27.6l-42.8-6.6c-.7-.1-1.5-.1-2.2-.1-4.6 0-9.1 1.9-12.5 5.1l-5.3 5.3-66.4-66.4 14-14c3.4-3.4 3.4-9 0-12.4-1.8-1.8-4-2.6-6.3-2.6s-4.5.9-6.3 2.6l-24.6 24.6c-2.6 2.6-6 3.9-9.4 3.9s-6.8-1.3-9.4-3.9c-5.2-5.2-5.2-13.5 0-18.7l42.8-42.8c3.3-3.3 7.8-5.2 12.5-5.2h21.7c4.7 0 9.2 1.9 12.5 5.2l25 25c3.3 3.3 7.8 5.2 12.5 5.2h46.7c4.3 13.9 6.6 28.8 6.6 44.1.1 18.1-3.1 35.5-9.1 51.7z"/></svg>